<?xml version="1.0" encoding="UTF-8"?> <svg xmlns="http://www.w3.org/2000/svg" width="169" height="44" viewBox="0 0 169 44" fill="none"> <path fill-rule="evenodd" clip-rule="evenodd" d="M26.3339 21.6358C24.902 19.4287 24.0852 16.7536 24.0852 13.8425C24.0852 6.23159 29.7746 0 37.868 0C42.7935 0 45.7719 1.72093 48.3282 4.16782L45.3133 7.64751C43.1748 5.65876 40.8853 4.32033 37.8314 4.32033C32.714 4.32033 29.0096 8.52719 29.0096 13.8425C29.0096 19.0816 32.714 23.3634 37.8314 23.3634C41.1137 23.3634 43.215 22.0244 45.5021 19.8831L48.5195 22.9437C45.7317 25.8488 42.6784 27.685 37.6798 27.685C34.8396 27.685 32.2681 26.87 30.14 25.4663L23.9884 27.6752L26.3339 21.6358ZM1.06953 7.83845C1.06953 12.8475 4.27509 14.5306 9.96689 15.8685C14.9284 17.0538 15.9973 18.0866 15.9973 19.9997C15.9973 22.1025 14.1628 23.4391 11.2618 23.4391C7.93989 23.4391 5.383 22.1781 2.82367 19.9606L0 23.325C3.20738 26.1934 7.06282 27.6081 11.1497 27.6081C16.7599 27.6081 20.6921 24.6262 20.6921 19.6166C20.6921 15.1041 17.7551 13.0769 12.1023 11.7006C6.98547 10.4769 5.76732 9.55877 5.76732 7.49438C5.76732 5.65876 7.36614 4.24346 10.1167 4.24346C12.5597 4.24346 14.9656 5.20001 17.3702 6.9972L19.8893 3.44004C17.1802 1.26157 14.0885 0.0768655 10.1941 0.0768655C4.88782 0.0768655 1.06953 3.25031 1.06953 7.83845ZM103.203 0.459363V27.2269H107.897V18.6222H113.206C119.086 18.6222 123.895 15.4872 123.895 9.48191C123.895 4.01409 119.963 0.459363 113.74 0.459363H103.203ZM107.897 4.74065H113.358C116.87 4.74065 119.121 6.38594 119.121 9.52034C119.121 12.3882 116.908 14.3775 113.358 14.3775H107.897V4.74065ZM129.57 27.2269H147.249V23.0194H129.57V27.2269ZM154.563 27.2269V0.459363H159.258V22.9437H168.385V27.2269H154.563ZM129.57 15.8306H147.249V11.6244H129.57V15.8306ZM147.249 4.66439H129.57V0.459363H147.249V4.66439ZM61.8308 0.266589L50.0738 27.2269H54.8861L57.6348 20.7634H70.2737L72.9817 27.2269H77.945L66.185 0.266589H61.8308ZM63.9339 5.88814L68.5525 16.595H59.3518L63.9339 5.88814ZM73.874 0.467903L74.2065 0.459363H86.1182C92.3807 0.459363 96.0443 3.82253 96.0443 8.98533C96.0443 13.3831 93.4113 16.0216 89.6715 17.0922L96.8836 27.2269H91.3483L84.7045 17.8962H81.5654L81.2072 17.2807L79.6578 13.7266H85.7741C89.1343 13.7266 91.271 11.9678 91.271 9.17627C91.271 6.30846 89.2105 4.74065 85.7357 4.74065H78.9037L75.7432 4.75041L73.874 0.467903Z" fill="url(#paint0_linear)"></path> <path fill-rule="evenodd" clip-rule="evenodd" d="M93.5694 35.8437C91.2975 35.8437 89.6335 37.6922 89.6335 39.9225C89.6335 42.2089 91.2975 44 93.5474 44C94.941 44 95.8406 43.4479 96.6732 42.6262L96.2791 42.2425C95.4813 43.0313 94.7053 43.4705 93.5694 43.4705C91.6916 43.4705 90.2402 41.9161 90.2402 39.9225C90.2402 37.9173 91.6691 36.3745 93.5578 36.3745C94.7394 36.3745 95.5257 36.8698 96.2121 37.5335L96.594 37.1401C95.7846 36.397 94.9751 35.8437 93.5694 35.8437ZM49.333 36.5208H46.5891V35.9797H52.661V36.5208H49.9171V43.8639H49.333V36.5208ZM57.8172 35.9798H63.417V36.5209H58.4013V39.6187H62.9108V40.1586H58.4013V43.3241H63.473V43.864H57.8172V35.9798ZM69.3141 35.9798H68.7294V43.864H73.9351V43.3241H69.3141V35.9798ZM79.0693 35.9798H84.6698V36.5209H79.654V39.6187H84.1636V40.1586H79.654V43.3241H84.7258V43.864H79.0693V35.9798ZM108.396 39.9225C108.396 37.9734 106.979 36.3745 105.033 36.3745C103.088 36.3745 101.693 37.9508 101.693 39.9225C101.693 41.8703 103.11 43.4705 105.056 43.4705C107.002 43.4705 108.396 41.8929 108.396 39.9225ZM101.086 39.9225C101.086 37.7708 102.671 35.8437 105.056 35.8437C107.44 35.8437 109.003 37.7483 109.003 39.9225C109.003 42.0729 107.417 44 105.033 44C102.649 44 101.086 42.0961 101.086 39.9225ZM114.924 35.9798H114.374V43.864H114.936V37.0163L118.051 41.555H118.096L121.21 37.0163V43.864H121.795V35.9798H121.244L118.084 40.6436L114.924 35.9798Z" fill="#0056B2"></path> <defs> <linearGradient id="paint0_linear" x1="0" y1="27.685" x2="168.385" y2="27.685" gradientUnits="userSpaceOnUse"> <stop stop-color="#0056B2"></stop> <stop offset="1" stop-color="#A0C639"></stop> </linearGradient> </defs> </svg> 